# xmcd CD database file
#
# Track frame offsets:
#	150
#	11925
#	22450
#	33500
#	55200
#	72775
#	82575
#	94975
#	109575
#	124550
#	137850
#	150075
#
# Disc length: 2190 seconds
#
# Revision: 0
# Processed by: cddbd v1.4PL0 Copyright (c) Steve Scherf et al.
# Submitted via: CDex 1.40Beta9
#
DISCID=95088c0c
DTITLE=Tom Astor - Highway Helden CD1
DYEAR=1992
DGENRE=Country
TTITLE0=14 Tage auf dem Brenner 
TTITLE1=Highway Helden
TTITLE2=Panamerican Highway
TTITLE3=Kameraden der Straﬂe
TTITLE4=Mein Freund Charly
TTITLE5=Sicht weg - Gas weg
TTITLE6=Junge zieh die Bremse  an 
TTITLE7=Geistertruck
TTITLE8=Halt Abstand Junge
TTITLE9=Der kleine Trucker
TTITLE10=Radwechsel
TTITLE11=Ich bin ein Gefangener der Autobahn
EXTD=YEAR: 1992 ID3G: 2
EXTT0=
EXTT1=
EXTT2=
EXTT3=
EXTT4=
EXTT5=
EXTT6=
EXTT7=
EXTT8=
EXTT9=
EXTT10=
EXTT11=
PLAYORDER=
